<?xml version="1.0" encoding="UTF-8" standalone="no"?>
<!-- Created with Inkscape (http://www.inkscape.org/) -->
<svg
   xmlns:dc="http://purl.org/dc/elements/1.1/"
   xmlns:cc="http://creativecommons.org/ns#"
   xmlns:rdf="http://www.w3.org/1999/02/22-rdf-syntax-ns#"
   xmlns:svg="http://www.w3.org/2000/svg"
   xmlns="http://www.w3.org/2000/svg"
   xmlns:sodipodi="http://sodipodi.sourceforge.net/DTD/sodipodi-0.dtd"
   xmlns:inkscape="http://www.inkscape.org/namespaces/inkscape"
   width="1024.0001"
   height="496.19806"
   id="svg3556"
   sodipodi:version="0.32"
   inkscape:version="0.46"
   version="1.0"
   sodipodi:docname="Emblem of the Bundestag.svg"
   inkscape:output_extension="org.inkscape.output.svg.inkscape">
  <defs
     id="defs3558">
    <clipPath
       clipPathUnits="userSpaceOnUse"
       id="clipPath2580">
      <path
         d="M 527.43,559.466 C 527.621,571.852 534.698,582.173 544.165,584.922 L 554.245,584.922 C 563.712,582.173 570.788,571.852 570.98,559.466 L 527.43,559.466"
         id="path2582" />
    </clipPath>
    <clipPath
       clipPathUnits="userSpaceOnUse"
       id="clipPath2666">
      <path
         d="M 506.693,586.1 L 591.843,586.1 L 591.843,541.419 L 506.693,541.419 L 506.693,586.1 z"
         id="path2668" />
    </clipPath>
    <inkscape:perspective
       sodipodi:type="inkscape:persp3d"
       inkscape:vp_x="0 : 526.18109 : 1"
       inkscape:vp_y="0 : 1000 : 0"
       inkscape:vp_z="744.09448 : 526.18109 : 1"
       inkscape:persp3d-origin="372.04724 : 350.78739 : 1"
       id="perspective3564" />
  </defs>
  <sodipodi:namedview
     id="base"
     pagecolor="#ffffff"
     bordercolor="#666666"
     borderopacity="1.0"
     gridtolerance="10000"
     guidetolerance="10"
     objecttolerance="10"
     inkscape:pageopacity="0.0"
     inkscape:pageshadow="2"
     inkscape:zoom="1"
     inkscape:cx="48.93379"
     inkscape:cy="220.82856"
     inkscape:document-units="px"
     inkscape:current-layer="layer1"
     showgrid="false"
     inkscape:window-width="1680"
     inkscape:window-height="975"
     inkscape:window-x="0"
     inkscape:window-y="25" />
  <metadata
     id="metadata3561">
    <rdf:RDF>
      <cc:Work
         rdf:about="">
        <dc:format>image/svg+xml</dc:format>
        <dc:type
           rdf:resource="http://purl.org/dc/dcmitype/StillImage" />
      </cc:Work>
    </rdf:RDF>
  </metadata>
  <g
     inkscape:label="Layer 1"
     inkscape:groupmode="layer"
     id="layer1"
     transform="translate(-321.78125,-61.95226)">
    <g
       transform="matrix(12.025837,0,0,-12.025837,-5771.6261,7110.2956)"
       id="g2576"
       style="fill:#000000;stroke:#000000;stroke-opacity:1">
      <g
         id="g2578"
         clip-path="url(#clipPath2580)"
         style="fill:#000000;stroke:#000000;stroke-opacity:1">
        <path
           d="M 526.949,580.927 L 573.101,580.927"
           style="fill:#000000;stroke:#000000;stroke-width:0.19499999;stroke-linecap:butt;stroke-linejoin:miter;stroke-miterlimit:4;stroke-dasharray:none;stroke-opacity:1"
           id="path2584" />
        <path
           d="M 526.949,560.319 L 573.101,560.319"
           style="fill:#000000;stroke:#000000;stroke-width:0.25999999;stroke-linecap:butt;stroke-linejoin:miter;stroke-miterlimit:4;stroke-dasharray:none;stroke-opacity:1"
           id="path2586" />
        <path
           d="M 533.917,562.49 L 527.157,561.774 L 527.311,560.32 L 533.981,561.026 C 533.95,561.509 533.929,561.997 533.917,562.49"
           style="fill:#000000;fill-opacity:1;fill-rule:nonzero;stroke:#000000;stroke-opacity:1"
           id="path2588" />
        <path
           d="M 526.997,565.14 L 527.146,563.684 L 534.117,564.396 C 534.132,564.885 534.157,565.378 534.191,565.874 L 526.997,565.14"
           style="fill:#000000;fill-opacity:1;fill-rule:nonzero;stroke:#000000;stroke-opacity:1"
           id="path2590" />
        <path
           d="M 526.836,568.484 L 527.001,567.031 L 534.567,567.89 C 534.619,568.385 534.68,568.883 534.75,569.383 L 526.836,568.484"
           style="fill:#000000;fill-opacity:1;fill-rule:nonzero;stroke:#000000;stroke-opacity:1"
           id="path2592" />
        <path
           d="M 526.677,571.667 L 526.862,570.216 L 535.314,571.295 C 535.403,571.805 535.502,572.309 535.609,572.808 L 526.677,571.667"
           style="fill:#000000;fill-opacity:1;fill-rule:nonzero;stroke:#000000;stroke-opacity:1"
           id="path2594" />
        <path
           d="M 526.522,574.964 L 526.723,573.515 L 536.374,574.858 C 536.507,575.377 536.648,575.889 536.798,576.394 L 526.522,574.964"
           style="fill:#000000;fill-opacity:1;fill-rule:nonzero;stroke:#000000;stroke-opacity:1"
           id="path2596" />
        <path
           d="M 526.37,578.276 L 526.514,576.82 L 537.788,577.93 C 538,578.452 538.221,578.964 538.451,579.465 L 526.37,578.276"
           style="fill:#000000;fill-opacity:1;fill-rule:nonzero;stroke:#000000;stroke-opacity:1"
           id="path2598" />
        <path
           d="M 526.188,581.291 L 526.326,579.835 L 539.631,581.095 C 539.923,581.63 540.225,582.149 540.536,582.651 L 526.188,581.291"
           style="fill:#000000;fill-opacity:1;fill-rule:nonzero;stroke:#000000;stroke-opacity:1"
           id="path2600" />
        <path
           d="M 526.949,584.362 L 573.101,584.362 M 526.949,582.919 L 573.101,582.919 M 526.949,577.424 L 573.101,577.424 M 526.949,574.058 L 573.101,574.058 M 526.949,570.623 L 573.101,570.623 M 526.949,567.189 L 573.101,567.189 M 526.949,563.754 L 573.101,563.754"
           style="fill:#000000;stroke:#000000;stroke-width:0.19499999;stroke-linecap:butt;stroke-linejoin:miter;stroke-miterlimit:4;stroke-dasharray:none;stroke-opacity:1"
           id="path2602" />
        <path
           d="M 531.258,574.114 L 565.475,576.567 M 529.428,570.552 L 568.786,573.379 M 528.254,567.114 L 569.154,569.331 M 527.861,563.747 L 573.324,566.02 M 527.515,560.339 L 572.466,562.586"
           style="fill:#000000;stroke:#000000;stroke-width:0.25999999;stroke-linecap:butt;stroke-linejoin:miter;stroke-miterlimit:4;stroke-dasharray:none;stroke-opacity:1"
           id="path2604" />
      </g>
    </g>
    <path
       d="M 893.71802,70.719094 L 881.19912,61.95226 L 784.78799,61.95226 L 771.86022,70.719094 L 786.09881,70.719094 L 794.32448,76.287057 L 871.44617,76.287057 L 879.40727,70.719094 L 893.71802,70.719094"
       style="fill:#000000;fill-opacity:1;fill-rule:nonzero;stroke:none"
       id="path2606" />
    <path
       d="M 874.68112,167.14225 L 945.15252,167.14225 C 950.13122,158.86848 955.12194,151.14789 960.08861,142.71778 L 728.44695,142.58549 C 729.10837,144.89446 729.76979,145.86855 730.43121,146.83062 L 874.68112,146.83062 L 874.68112,167.14225"
       style="fill:#000000;fill-opacity:1;fill-rule:nonzero;stroke:none"
       id="path2608" />
    <path
       d="M 866.86433,207.26045 L 923.33766,207.26045 C 926.8492,200.14115 930.42087,193.26237 934.0166,186.64816 L 754.59111,186.64816 C 755.38482,188.11531 756.1665,189.58247 756.9602,191.07367 L 866.86433,191.07367 L 866.86433,207.26045"
       style="fill:#000000;fill-opacity:1;fill-rule:nonzero;stroke:none"
       id="path2610" />
    <path
       d="M 859.04753,252.05669 L 903.07412,252.05669 C 906.0445,244.85321 909.09907,237.79404 912.18971,230.89121 L 776.39396,230.89121 C 777.05538,232.37039 777.7168,233.83754 778.36619,235.32875 L 859.04753,235.32875 L 859.04753,252.05669"
       style="fill:#000000;fill-opacity:1;fill-rule:nonzero;stroke:none"
       id="path2612" />
    <path
       d="M 854.35746,295.3016 L 886.62278,295.3016 C 889.01592,288.43484 891.48121,281.64025 894.00664,274.94185 L 854.35746,274.94185 L 854.35746,275.14629 L 794.63715,275.14629 C 795.20237,276.61345 795.74353,278.09262 796.29672,279.5718 L 854.35746,279.5718 L 854.35746,295.3016"
       style="fill:#000000;fill-opacity:1;fill-rule:nonzero;stroke:none"
       id="path2614" />
    <path
       d="M 848.10402,340.10986 L 872.44432,340.10986 C 874.3925,333.24311 876.44892,326.34028 878.6256,319.38935 L 809.94604,319.38935 C 810.40302,320.86852 810.86001,322.3477 811.31699,323.81485 L 848.10402,323.81485 L 848.10402,340.10986"
       style="fill:#000000;fill-opacity:1;fill-rule:nonzero;stroke:none"
       id="path2616" />
    <path
       d="M 848.10402,384.90611 L 861.27231,384.90611 C 862.77554,377.90707 864.41106,370.81182 866.19088,363.64443 L 822.36873,363.64443 C 822.74153,365.11158 823.09028,366.59076 823.45106,368.05791 L 848.10402,368.05791 L 848.10402,384.90611"
       style="fill:#000000;fill-opacity:1;fill-rule:nonzero;stroke:none"
       id="path2618" />
    <path
       d="M 844.9773,429.71437 L 853.33526,429.71437 C 854.30935,422.6071 855.45181,415.31945 856.77465,407.88748 L 831.78496,407.88748 C 832.04953,409.36666 832.30207,410.84584 832.55461,412.31299 L 844.9773,412.31299 L 844.9773,429.71437"
       style="fill:#000000;fill-opacity:1;fill-rule:nonzero;stroke:none"
       id="path2620" />
    <path
       d="M 850.76173,452.13053 L 837.78585,452.13053 C 837.91814,453.62174 838.05042,455.10091 838.17068,456.55604 L 843.41395,456.55604 L 843.41395,477.1082 L 849.2585,477.1082 C 849.42686,470.66235 849.78764,463.9399 850.35285,456.55604 L 850.3769,456.55604 C 850.49716,455.10091 850.62945,453.62174 850.76173,452.13053"
       style="fill:#000000;fill-opacity:1;fill-rule:nonzero;stroke:none"
       id="path2622" />
    <path
       d="M 894.95668,137.46249 L 773.09888,137.46249 L 786.03868,128.70768 L 882.43779,128.70768 L 894.95668,137.46249"
       style="fill:#000000;fill-opacity:1;fill-rule:nonzero;stroke:none"
       id="path2624" />
    <path
       d="M 321.78125,555.99769 C 325.6656,555.99769 328.03469,555.4926 328.03469,550.093 L 328.03469,516.87764 C 328.03469,511.47804 325.6656,510.97295 321.78125,510.97295 L 321.78125,509.54188 L 338.6054,509.54188 C 350.54705,509.54188 363.19823,512.12743 363.19823,533.55747 C 363.19823,554.91536 349.89766,557.42876 338.6054,557.42876 L 321.78125,557.42876 L 321.78125,555.99769 z M 334.43243,548.58977 C 334.43243,553.83303 335.00967,554.62674 338.6054,554.62674 C 350.97998,554.62674 356.07894,548.01253 356.07894,533.55747 C 356.07894,520.32905 352.26675,512.3439 338.6054,512.3439 C 335.00967,512.3439 334.43243,512.77683 334.43243,518.38087 L 334.43243,548.58977"
       style="fill:#000000;fill-opacity:1;fill-rule:nonzero;stroke:none"
       id="path2626" />
    <path
       d="M 381.39332,555.99769 C 385.27767,555.99769 387.65878,555.4926 387.65878,550.093 L 387.65878,516.87764 C 387.65878,511.47804 385.27767,510.97295 381.39332,510.97295 L 381.39332,509.54188 L 413.97131,509.54188 L 414.4764,518.30871 L 412.68455,518.30871 C 411.81869,513.93131 409.43757,512.3439 404.33862,512.3439 L 398.01303,512.3439 C 394.27299,512.3439 394.05653,513.1376 394.05653,518.38087 L 394.05653,530.97192 L 403.32845,530.97192 C 408.15081,530.97192 409.8705,529.88959 409.8705,524.92292 L 411.38576,524.92292 L 411.38576,539.81091 L 409.8705,539.81091 C 409.8705,535.79428 408.15081,533.77394 403.32845,533.77394 L 394.05653,533.77394 L 394.05653,548.58977 C 394.05653,554.19381 394.4173,554.62674 398.01303,554.62674 L 404.91586,554.62674 C 410.44774,554.62674 412.68455,552.90705 413.75485,547.94037 L 415.55873,547.94037 L 415.05364,557.42876 L 381.39332,557.42876 L 381.39332,555.99769"
       style="fill:#000000;fill-opacity:1;fill-rule:nonzero;stroke:none"
       id="path2628" />
    <path
       d="M 472.008,540.82108 C 472.008,550.67024 470.5649,558.15031 455.61679,558.15031 C 440.7288,558.15031 438.41984,550.95886 438.41984,540.82108 L 438.41984,516.87764 C 438.41984,511.47804 436.12291,510.97295 432.16641,510.97295 L 432.16641,509.54188 L 451.08305,509.54188 L 451.08305,510.97295 C 447.1987,510.97295 444.82961,511.47804 444.82961,516.87764 L 444.82961,540.82108 C 444.82961,548.15684 446.54931,555.34829 455.90541,555.34829 C 466.25965,555.34829 467.90719,549.38348 467.90719,540.82108 L 467.90719,516.87764 C 467.90719,511.47804 465.5381,510.97295 461.65376,510.97295 L 461.65376,509.54188 L 478.26144,509.54188 L 478.26144,510.97295 C 474.30494,510.97295 472.008,511.47804 472.008,516.87764 L 472.008,540.82108"
       style="fill:#000000;fill-opacity:1;fill-rule:nonzero;stroke:none"
       id="path2630" />
    <path
       d="M 500.05225,555.99769 C 504.36953,555.99769 506.95508,555.4926 506.95508,550.093 L 506.95508,512.3439 L 502.56565,512.3439 C 495.24192,512.3439 494.15959,515.29023 493.43804,519.31888 L 491.64619,519.31888 L 492.13925,509.54188 L 528.16866,509.54188 L 528.67375,519.31888 L 526.8819,519.31888 C 526.44897,514.78514 524.28432,512.3439 517.23717,512.3439 L 513.35283,512.3439 L 513.35283,550.093 C 513.35283,555.4926 515.95041,555.99769 520.26769,555.99769 L 520.26769,557.42876 L 500.05225,557.42876 L 500.05225,555.99769"
       style="fill:#000000;fill-opacity:1;fill-rule:nonzero;stroke:none"
       id="path2632" />
    <path
       d="M 573.19339,519.89612 C 572.544,516.08393 569.66982,511.62235 561.97329,511.62235 C 557.15093,511.62235 552.90581,514.71299 552.90581,519.46319 C 552.90581,525.86094 561.4682,527.95343 567.72164,531.62131 C 573.40986,534.92842 577.22205,537.87475 577.22205,544.70542 C 577.22205,553.83303 569.30905,558.15031 559.45989,558.15031 C 554.56537,558.15031 548.88918,557.08001 547.0853,556.79139 L 546.58022,546.64158 L 548.38409,546.64158 C 548.96133,550.45377 552.34059,554.91536 560.03713,554.91536 C 566.36272,554.91536 570.46353,550.81455 570.46353,545.8599 C 570.46353,538.09121 558.52187,535.72212 551.83551,530.61114 C 548.67271,528.1699 547.15746,525.57232 547.15746,520.97845 C 547.15746,512.3439 554.27675,508.82033 563.34423,508.82033 C 568.15457,508.82033 571.24521,509.39757 574.48016,510.04696 L 574.98524,519.89612 L 573.19339,519.89612"
       style="fill:#000000;fill-opacity:1;fill-rule:nonzero;stroke:none"
       id="path2634" />
    <path
       d="M 631.66301,556.21415 C 628.13944,557.50091 624.11079,558.15031 618.78334,558.15031 C 604.40044,558.15031 597.49761,547.21882 597.49761,531.90993 C 597.49761,518.59733 601.81488,508.82033 617.20796,508.82033 C 622.95631,508.82033 627.85082,509.97481 631.01362,510.82864 L 631.66301,522.1209 L 629.85914,522.1209 C 628.92112,518.09225 626.04695,511.62235 617.1358,511.62235 C 605.55492,511.62235 604.6169,523.92478 604.6169,531.33269 C 604.6169,540.60461 606.63725,554.91536 622.37907,554.91536 C 627.20143,554.91536 629.78698,553.83303 631.66301,553.12351 L 631.66301,556.21415"
       style="fill:#000000;fill-opacity:1;fill-rule:nonzero;stroke:none"
       id="path2636" />
    <path
       d="M 648.84793,555.99769 C 652.73228,555.99769 655.10137,555.4926 655.10137,550.093 L 655.10137,516.87764 C 655.10137,511.47804 652.73228,510.97295 648.84793,510.97295 L 648.84793,509.54188 L 667.76457,509.54188 L 667.76457,510.97295 C 663.80807,510.97295 661.49911,511.47804 661.49911,516.87764 L 661.49911,531.33269 L 681.85885,531.33269 L 681.85885,516.87764 C 681.85885,511.47804 679.47774,510.97295 675.59339,510.97295 L 675.59339,509.54188 L 694.51003,509.54188 L 694.51003,510.97295 C 690.55353,510.97295 688.2566,511.47804 688.2566,516.87764 L 688.2566,550.093 C 688.2566,555.4926 690.55353,555.99769 694.51003,555.99769 L 694.51003,557.42876 L 675.59339,557.42876 L 675.59339,555.99769 C 679.47774,555.99769 681.85885,555.4926 681.85885,550.093 L 681.85885,534.13471 L 661.49911,534.13471 L 661.49911,550.093 C 661.49911,555.4926 663.80807,555.99769 667.76457,555.99769 L 667.76457,557.42876 L 648.84793,557.42876 L 648.84793,555.99769"
       style="fill:#000000;fill-opacity:1;fill-rule:nonzero;stroke:none"
       id="path2638" />
    <path
       d="M 709.7588,555.99769 C 713.64314,555.99769 716.01223,555.4926 716.01223,550.093 L 716.01223,516.87764 C 716.01223,511.47804 713.64314,510.97295 709.7588,510.97295 L 709.7588,509.54188 L 742.33679,509.54188 L 742.84187,518.30871 L 741.038,518.30871 C 740.17214,513.93131 737.80305,512.3439 732.69207,512.3439 L 726.36648,512.3439 C 722.62644,512.3439 722.40998,513.1376 722.40998,518.38087 L 722.40998,530.97192 L 731.69392,530.97192 C 736.50426,530.97192 738.23598,529.88959 738.23598,524.92292 L 739.73921,524.92292 L 739.73921,539.81091 L 738.23598,539.81091 C 738.23598,535.79428 736.50426,533.77394 731.69392,533.77394 L 722.40998,533.77394 L 722.40998,548.58977 C 722.40998,554.19381 722.77075,554.62674 726.36648,554.62674 L 733.26931,554.62674 C 738.81322,554.62674 741.038,552.90705 742.12032,547.94037 L 743.91217,547.94037 L 743.40709,557.42876 L 709.7588,557.42876 L 709.7588,555.99769"
       style="fill:#000000;fill-opacity:1;fill-rule:nonzero;stroke:none"
       id="path2640" />
    <path
       d="M 761.16925,555.99769 C 765.12575,555.99769 767.43471,555.4926 767.43471,550.093 L 767.43471,516.87764 C 767.43471,511.47804 765.12575,510.97295 761.16925,510.97295 L 761.16925,509.54188 L 780.2302,509.54188 C 787.99889,509.54188 796.34482,511.55019 796.34482,520.54552 C 796.34482,529.74528 788.86475,532.18653 783.75377,532.61946 L 793.24215,548.73408 C 795.55111,552.61843 797.55943,555.99769 802.09317,555.99769 L 802.09317,557.42876 L 791.16168,557.42876 L 776.77878,533.12454 L 773.83245,533.12454 L 773.83245,550.093 C 773.83245,555.4926 776.20154,555.99769 780.15804,555.99769 L 780.15804,557.42876 L 761.16925,557.42876 L 761.16925,555.99769 z M 773.83245,530.32252 C 782.17838,530.32252 789.5863,529.52882 789.5863,520.54552 C 789.5863,514.42437 784.25885,512.3439 778.5105,512.3439 C 774.19323,512.3439 773.83245,513.20976 773.83245,517.0941 L 773.83245,530.32252"
       style="fill:#000000;fill-opacity:1;fill-rule:nonzero;stroke:none"
       id="path2642" />
    <path
       d="M 851.13453,555.99769 C 855.01888,555.99769 857.39999,555.4926 857.39999,550.093 L 857.39999,516.87764 C 857.39999,511.47804 855.01888,510.97295 851.13453,510.97295 L 851.13453,509.54188 L 868.82454,509.54188 C 874.36845,509.54188 886.16579,509.54188 886.16579,521.0506 C 886.16579,528.31421 881.05481,530.75545 877.67555,531.83778 L 877.67555,531.97006 C 882.71438,532.83592 888.60704,535.79428 888.60704,544.56111 C 888.60704,556.43062 877.17047,557.42876 869.90686,557.42876 L 851.13453,557.42876 L 851.13453,555.99769 z M 863.79774,530.75545 L 867.10484,530.75545 C 871.27781,530.75545 879.40727,530.6833 879.40727,521.54366 C 879.40727,514.28006 874.65707,512.3439 868.82454,512.3439 C 864.30282,512.3439 863.79774,512.99329 863.79774,518.38087 L 863.79774,530.75545 z M 863.79774,548.58977 C 863.79774,553.97734 863.86989,554.62674 869.90686,554.62674 C 875.81155,554.62674 881.84852,552.25765 881.84852,544.56111 C 881.84852,534.20687 873.21397,533.55747 867.10484,533.55747 L 863.79774,533.55747 L 863.79774,548.58977"
       style="fill:#000000;fill-opacity:1;fill-rule:nonzero;stroke:none"
       id="path2644" />
    <path
       d="M 945.85002,540.82108 C 945.85002,550.67024 944.40692,558.15031 929.44678,558.15031 C 914.57082,558.15031 912.26186,550.95886 912.26186,540.82108 L 912.26186,516.87764 C 912.26186,511.47804 909.96493,510.97295 906.00843,510.97295 L 906.00843,509.54188 L 924.92507,509.54188 L 924.92507,510.97295 C 921.04072,510.97295 918.65961,511.47804 918.65961,516.87764 L 918.65961,540.82108 C 918.65961,548.15684 920.39133,555.34829 929.7354,555.34829 C 940.10167,555.34829 941.74921,549.38348 941.74921,540.82108 L 941.74921,516.87764 C 941.74921,511.47804 939.38012,510.97295 935.49578,510.97295 L 935.49578,509.54188 L 952.10346,509.54188 L 952.10346,510.97295 C 948.14696,510.97295 945.85002,511.47804 945.85002,516.87764 L 945.85002,540.82108"
       style="fill:#000000;fill-opacity:1;fill-rule:nonzero;stroke:none"
       id="path2646" />
    <path
       d="M 966.77498,555.99769 C 970.65932,555.99769 973.02841,555.4926 973.02841,550.093 L 973.02841,516.87764 C 973.02841,511.47804 970.65932,510.97295 966.77498,510.97295 L 966.77498,509.54188 L 979.85909,509.54188 L 1002.0107,548.15684 L 1002.155,548.15684 L 1002.155,516.87764 C 1002.155,511.47804 999.7859,510.97295 995.90156,510.97295 L 995.90156,509.54188 L 1012.5092,509.54188 L 1012.5092,510.97295 C 1008.5527,510.97295 1006.2558,511.47804 1006.2558,516.87764 L 1006.2558,557.42876 L 1000.9284,557.42876 L 977.27353,516.15609 L 977.12922,516.15609 L 977.12922,550.093 C 977.12922,555.4926 979.42616,555.99769 983.38266,555.99769 L 983.38266,557.42876 L 966.77498,557.42876 L 966.77498,555.99769"
       style="fill:#000000;fill-opacity:1;fill-rule:nonzero;stroke:none"
       id="path2648" />
    <path
       d="M 1027.3972,555.99769 C 1031.2816,555.99769 1033.6507,555.4926 1033.6507,550.093 L 1033.6507,516.87764 C 1033.6507,511.47804 1031.2816,510.97295 1027.3972,510.97295 L 1027.3972,509.54188 L 1044.2214,509.54188 C 1056.163,509.54188 1068.8262,512.12743 1068.8262,533.55747 C 1068.8262,554.91536 1055.5136,557.42876 1044.2214,557.42876 L 1027.3972,557.42876 L 1027.3972,555.99769 z M 1040.0484,548.58977 C 1040.0484,553.83303 1040.6256,554.62674 1044.2214,554.62674 C 1056.596,554.62674 1061.7069,548.01253 1061.7069,533.55747 C 1061.7069,520.32905 1057.8947,512.3439 1044.2214,512.3439 C 1040.6256,512.3439 1040.0484,512.77683 1040.0484,518.38087 L 1040.0484,548.58977"
       style="fill:#000000;fill-opacity:1;fill-rule:nonzero;stroke:none"
       id="path2650" />
    <path
       d="M 1087.0093,555.99769 C 1090.8936,555.99769 1093.2748,555.4926 1093.2748,550.093 L 1093.2748,516.87764 C 1093.2748,511.47804 1090.8936,510.97295 1087.0093,510.97295 L 1087.0093,509.54188 L 1119.5873,509.54188 L 1120.0924,518.30871 L 1118.3005,518.30871 C 1117.4347,513.93131 1115.0656,512.3439 1109.9546,512.3439 L 1103.629,512.3439 C 1099.889,512.3439 1099.6725,513.1376 1099.6725,518.38087 L 1099.6725,530.97192 L 1108.9444,530.97192 C 1113.7668,530.97192 1115.4865,529.88959 1115.4865,524.92292 L 1117.0017,524.92292 L 1117.0017,539.81091 L 1115.4865,539.81091 C 1115.4865,535.79428 1113.7668,533.77394 1108.9444,533.77394 L 1099.6725,533.77394 L 1099.6725,548.58977 C 1099.6725,554.19381 1100.0333,554.62674 1103.629,554.62674 L 1110.5318,554.62674 C 1116.0637,554.62674 1118.3005,552.90705 1119.3828,547.94037 L 1121.1747,547.94037 L 1120.6696,557.42876 L 1087.0093,557.42876 L 1087.0093,555.99769"
       style="fill:#000000;fill-opacity:1;fill-rule:nonzero;stroke:none"
       id="path2652" />
    <path
       d="M 1168.9293,519.89612 C 1168.2799,516.08393 1165.4057,511.62235 1157.7092,511.62235 C 1152.8868,511.62235 1148.6417,514.71299 1148.6417,519.46319 C 1148.6417,525.86094 1157.2041,527.95343 1163.4575,531.62131 C 1169.1458,534.92842 1172.9459,537.87475 1172.9459,544.70542 C 1172.9459,553.83303 1165.0449,558.15031 1155.1838,558.15031 C 1150.3013,558.15031 1144.6131,557.08001 1142.8212,556.79139 L 1142.3161,546.64158 L 1144.108,546.64158 C 1144.6852,550.45377 1148.0645,554.91536 1155.761,554.91536 C 1162.0866,554.91536 1166.1874,550.81455 1166.1874,545.8599 C 1166.1874,538.09121 1154.2578,535.72212 1147.5714,530.61114 C 1144.3966,528.1699 1142.8934,525.57232 1142.8934,520.97845 C 1142.8934,512.3439 1150.0127,508.82033 1159.0681,508.82033 C 1163.8905,508.82033 1166.9811,509.39757 1170.2161,510.04696 L 1170.7211,519.89612 L 1168.9293,519.89612"
       style="fill:#000000;fill-opacity:1;fill-rule:nonzero;stroke:none"
       id="path2654" />
    <path
       d="M 1197.6951,555.99769 C 1202.0003,555.99769 1204.5979,555.4926 1204.5979,550.093 L 1204.5979,512.3439 L 1200.2085,512.3439 C 1192.8727,512.3439 1191.7904,515.29023 1191.0689,519.31888 L 1189.277,519.31888 L 1189.7821,509.54188 L 1225.8115,509.54188 L 1226.3166,519.31888 L 1224.5127,519.31888 C 1224.0798,514.78514 1221.9272,512.3439 1214.88,512.3439 L 1210.9957,512.3439 L 1210.9957,550.093 C 1210.9957,555.4926 1213.5812,555.99769 1217.8985,555.99769 L 1217.8985,557.42876 L 1197.6951,557.42876 L 1197.6951,555.99769"
       style="fill:#000000;fill-opacity:1;fill-rule:nonzero;stroke:none"
       id="path2656" />
    <path
       d="M 1236.0335,555.99769 C 1241.6375,555.99769 1242.5755,553.55644 1244.656,548.01253 L 1259.544,508.82033 L 1263.5726,508.82033 L 1278.5328,548.58977 C 1280.2525,553.12351 1282.1285,555.99769 1286.8065,555.99769 L 1286.8065,557.42876 L 1268.1064,557.42876 L 1268.1064,555.99769 C 1270.3312,555.99769 1273.2053,555.4926 1273.2053,553.6286 C 1273.2053,552.69058 1272.8566,551.39179 1272.568,550.59808 L 1269.1887,541.54263 L 1251.1379,541.54263 L 1248.0352,550.093 C 1247.6143,551.39179 1247.1814,552.54627 1247.1814,553.48429 C 1247.1814,555.56476 1249.4783,555.99769 1252.2804,555.99769 L 1252.2804,557.42876 L 1236.0335,557.42876 L 1236.0335,555.99769 z M 1252.1361,538.74061 L 1268.1785,538.74061 L 1260.1934,516.80548 L 1252.1361,538.74061"
       style="fill:#000000;fill-opacity:1;fill-rule:nonzero;stroke:none"
       id="path2658" />
    <path
       d="M 1336.5695,556.06984 C 1333.4788,557.15217 1329.0293,558.15031 1322.9803,558.15031 C 1308.0923,558.15031 1300.4679,548.73408 1300.4679,532.25868 C 1300.4679,516.94979 1304.9295,508.82033 1321.6935,508.82033 C 1327.3697,508.82033 1331.9756,509.8305 1335.4992,510.75649 L 1336.1486,522.1209 L 1334.3447,522.1209 C 1333.6231,517.94794 1330.6768,511.62235 1320.8276,511.62235 C 1308.3809,511.62235 1307.5872,522.84245 1307.5872,531.33269 C 1307.5872,540.38815 1309.3911,554.91536 1324.4234,554.91536 C 1327.3697,554.91536 1328.8128,554.62674 1330.1717,554.33812 L 1330.1717,538.23552 C 1330.1717,532.76377 1327.4418,532.33084 1323.9183,532.33084 L 1323.9183,530.89976 L 1342.6185,530.89976 L 1342.6185,532.33084 C 1339.0227,532.33084 1336.5695,532.76377 1336.5695,538.23552 L 1336.5695,556.06984"
       style="fill:#000000;fill-opacity:1;fill-rule:nonzero;stroke:none"
       id="path2660" />
    <g
       transform="matrix(12.025837,0,0,-12.025837,-5771.6261,7110.2956)"
       id="g2662"
       style="fill:#000000;stroke:#000000;stroke-opacity:1">
      <g
         id="g2664"
         clip-path="url(#clipPath2666)"
         style="fill:#000000;stroke:#000000;stroke-opacity:1">
        <path
           d="M 506.756,560.309 L 525.953,560.309 M 572.752,560.309 L 591.843,560.309"
           style="fill:#000000;stroke:#000000;stroke-width:0.25999999;stroke-linecap:butt;stroke-linejoin:miter;stroke-miterlimit:4;stroke-dasharray:none;stroke-opacity:1"
           id="path2670" />
      </g>
    </g>
  </g>
</svg>
